<svg width="82" height="54" viewBox="0 0 82 54" fill="none" xmlns="http://www.w3.org/2000/svg">
<path d="M58.3325 18.1623C58.3317 17.9137 58.3259 17.6665 58.3148 17.4204V3.39318L54.4368 7.27113C51.2629 3.38616 46.4346 0.904785 41.0265 0.904785C35.3985 0.904785 30.3985 3.59118 27.2378 7.75149L33.5942 14.1748C34.2172 13.0227 35.1021 12.0332 36.1691 11.2858C37.2789 10.4198 38.8512 9.71178 41.0263 9.71178C41.2891 9.71178 41.4919 9.74248 41.6409 9.80033C44.3359 10.013 46.6718 11.5003 48.0473 13.659L43.5479 18.1584C49.2469 18.136 55.6851 18.1229 58.332 18.1613" fill="#1C3AA9"/>
<path d="M40.9254 0.905518C40.6769 0.906331 40.4297 0.912117 40.1836 0.923227H26.1564L30.0343 4.80118C26.1493 7.97507 23.668 12.8034 23.668 18.2115C23.668 23.8396 26.3544 28.8395 30.5147 32.0002L36.938 25.6438C35.7859 25.0208 34.7964 24.1359 34.049 23.0689C33.1831 21.9592 32.475 20.3868 32.475 18.2117C32.475 17.9489 32.5057 17.7461 32.5635 17.5971C32.7762 14.9022 34.2635 12.5662 36.4222 11.1907L40.9216 15.6901C40.8992 9.99107 40.886 3.55291 40.9245 0.90601" fill="#4285F4"/>
<path d="M23.6685 18.2109C23.6693 18.4595 23.675 18.7067 23.6862 18.9528V32.98L27.5641 29.1021C30.738 32.987 35.5663 35.4684 40.9744 35.4684C46.6025 35.4684 51.6025 32.782 54.7632 28.6217L48.4067 22.1984C47.7838 23.3505 46.8988 24.34 45.8318 25.0874C44.7221 25.9534 43.1497 26.6614 40.9746 26.6614C40.7119 26.6614 40.509 26.6307 40.36 26.5729C37.6651 26.3602 35.3291 24.8729 33.9537 22.7142L38.4531 18.2148C32.754 18.2372 26.3159 18.2503 23.669 18.2119" fill="#ABABAB"/>
<path d="M18.1469 40.5238C17.4971 40.5238 16.9144 40.6471 16.399 40.8936C15.8836 41.1345 15.4466 41.479 15.0881 41.9272C14.7352 42.3753 14.4635 42.9188 14.273 43.5574C14.0881 44.1904 13.9956 44.8991 13.9956 45.6834V47.9438C13.9956 48.7337 14.0881 49.4452 14.273 50.0783C14.4634 50.7113 14.7323 51.2519 15.0797 51.7001C15.4271 52.1483 15.8472 52.4928 16.3402 52.7337C16.8331 52.9746 17.3878 53.095 18.004 53.095C18.6371 53.095 19.1917 53.0026 19.6679 52.8177C20.1497 52.6329 20.553 52.3668 20.878 52.0195C21.2029 51.6665 21.4522 51.2408 21.6259 50.7421C21.8051 50.2435 21.9116 49.6777 21.9452 49.0447H20.3905C20.3513 49.5321 20.2841 49.9495 20.1889 50.2967C20.0936 50.6385 19.9536 50.9214 19.7687 51.1455C19.5894 51.364 19.3541 51.5264 19.0628 51.6329C18.7771 51.7337 18.4241 51.7841 18.004 51.7841C17.5558 51.7841 17.1749 51.6861 16.8612 51.49C16.5475 51.2883 16.2926 51.0138 16.0965 50.6665C15.906 50.3191 15.766 49.913 15.6763 49.448C15.5923 48.983 15.5503 48.4816 15.5503 47.9438V45.6665C15.5503 45.0895 15.6007 44.5657 15.7015 44.0951C15.808 43.6245 15.9676 43.224 16.1805 42.8934C16.3934 42.5629 16.6623 42.308 16.9873 42.1288C17.3122 41.9439 17.6988 41.8514 18.1469 41.8514C18.5222 41.8514 18.8443 41.9074 19.1133 42.0195C19.3822 42.126 19.6062 42.294 19.7855 42.5237C19.9648 42.7478 20.102 43.0335 20.1973 43.3808C20.2925 43.7282 20.3569 44.1427 20.3905 44.6245H21.9452C21.9172 43.9634 21.8135 43.378 21.6342 42.8682C21.455 42.3584 21.2057 41.9298 20.8864 41.5825C20.567 41.2351 20.1776 40.9718 19.7183 40.7926C19.2646 40.6133 18.7408 40.5237 18.1469 40.5237L18.1469 40.5238ZM56.0963 40.5238C55.4464 40.5238 54.8638 40.6471 54.3484 40.8936C53.833 41.1345 53.396 41.479 53.0375 41.9272C52.6845 42.3753 52.4128 42.9188 52.2223 43.5574C52.0375 44.1904 51.945 44.8991 51.945 45.6834V47.9438C51.945 48.7337 52.0375 49.4452 52.2223 50.0783C52.4128 50.7113 52.6817 51.2519 53.0291 51.7001C53.3764 52.1483 53.7966 52.4928 54.2895 52.7337C54.7825 52.9746 55.3371 53.095 55.9534 53.095C56.5864 53.095 57.141 53.0026 57.6173 52.8177C58.099 52.6329 58.5024 52.3668 58.8274 52.0195C59.1523 51.6665 59.4016 51.2408 59.5752 50.7421C59.7545 50.2435 59.861 49.6777 59.8946 49.0447H58.34C58.3008 49.5321 58.2336 49.9495 58.1383 50.2967C58.0431 50.6385 57.903 50.9214 57.7182 51.1455C57.5389 51.364 57.3036 51.5264 57.0122 51.6329C56.7265 51.7337 56.3736 51.7841 55.9535 51.7841C55.5053 51.7841 55.1243 51.6861 54.8106 51.49C54.4969 51.2883 54.242 51.0138 54.0459 50.6665C53.8555 50.3191 53.7154 49.913 53.6258 49.448C53.5417 48.983 53.4997 48.4816 53.4997 47.9438V45.6665C53.4997 45.0895 53.5502 44.5657 53.651 44.0951C53.7574 43.6245 53.9171 43.224 54.13 42.8934C54.3429 42.5629 54.6118 42.308 54.9367 42.1287C55.2616 41.9439 55.6482 41.8514 56.0963 41.8514C56.4716 41.8514 56.7937 41.9074 57.0626 42.0195C57.3315 42.1259 57.5556 42.294 57.7349 42.5237C57.9142 42.7478 58.0514 43.0335 58.1466 43.3808C58.2419 43.7282 58.3063 44.1427 58.3399 44.6245H59.8945C59.8664 43.9634 59.7628 43.378 59.5836 42.8682C59.4043 42.3584 59.155 41.9298 58.8357 41.5825C58.5164 41.2351 58.127 40.9718 57.6677 40.7926C57.2139 40.6133 56.6901 40.5237 56.0962 40.5237L56.0963 40.5238ZM27.0044 40.6919L23.0633 52.9269H24.6431L25.5927 49.7337H29.7271L30.6935 52.9269H32.2733L28.3237 40.6919H27.0044ZM33.9369 40.6919V52.9269H35.4747V48.137H37.836C38.4242 48.137 38.9452 48.0558 39.399 47.8934C39.8528 47.7253 40.2337 47.4844 40.5418 47.1707C40.8556 46.8569 41.0908 46.4704 41.2477 46.011C41.4101 45.546 41.4914 45.0195 41.4914 44.4312C41.4914 43.8878 41.4101 43.3892 41.2477 42.9354C41.0908 42.476 40.8583 42.0811 40.5502 41.7505C40.2421 41.4144 39.8584 41.1539 39.399 40.969C38.9452 40.7842 38.4242 40.6917 37.836 40.6917L33.9369 40.6919ZM42.6678 40.6919V42.0196H45.8778V52.9269H47.4156V42.0196H50.6341V40.6919H42.6678ZM61.9701 40.6919V52.9269H63.5079V47.2715H68.4322V52.9269H69.9784V40.6919H68.4322V45.9523H63.5079V40.6919H61.9701ZM75.8102 40.6919L71.8691 52.9269H73.4489L74.3985 49.7337H78.5329L79.4992 52.9269H81.0791L77.1295 40.6919H75.8102ZM35.4745 42.0196H37.8358C38.2112 42.0196 38.5305 42.0868 38.7938 42.2213C39.0627 42.3557 39.2812 42.535 39.4493 42.7591C39.6229 42.9832 39.749 43.2437 39.8274 43.5406C39.9114 43.8319 39.9535 44.1344 39.9535 44.4481C39.9535 44.7955 39.9114 45.1148 39.8274 45.4061C39.749 45.6918 39.6229 45.9411 39.4493 46.154C39.2812 46.3613 39.0627 46.5237 38.7938 46.6414C38.5305 46.759 38.2112 46.8178 37.8358 46.8178H35.4745V42.0196ZM27.6597 42.8431L29.332 48.4061H25.9959L27.6597 42.8431ZM76.4655 42.8431L78.1378 48.4061H74.8017L76.4655 42.8431ZM4.08098 43.6667C3.69443 43.6667 3.36108 43.7647 3.08097 43.9608C2.80646 44.1569 2.57677 44.423 2.39192 44.7591L2.36672 43.8347H0.921387V52.927H2.40877V46.4227C2.54883 46.0361 2.7477 45.7308 3.0054 45.5067C3.2687 45.2826 3.60204 45.1706 4.00541 45.1706C4.13426 45.1706 4.24911 45.1763 4.34994 45.1874C4.45078 45.1931 4.56002 45.207 4.67767 45.2294L4.66937 43.784C4.64696 43.7728 4.61054 43.7616 4.56012 43.7504C4.51531 43.7335 4.46488 43.7195 4.40885 43.7084C4.35283 43.6971 4.294 43.6887 4.23238 43.6831C4.17636 43.6719 4.12595 43.6663 4.08112 43.6663L4.08098 43.6667ZM9.08091 43.6667C8.64954 43.6667 8.23218 43.7423 7.82884 43.8936C7.42548 44.0448 7.06695 44.2941 6.75325 44.6415C6.44514 44.9832 6.19584 45.4313 6.00536 45.986C5.81489 46.535 5.71965 47.21 5.71965 48.0112V49.0364C5.71965 49.731 5.80088 50.3333 5.96335 50.8431C6.12581 51.3528 6.3583 51.7758 6.66079 52.112C6.96891 52.4425 7.34144 52.689 7.77843 52.8515C8.2154 53.0139 8.7056 53.0952 9.24902 53.0952C9.64118 53.0952 9.99132 53.0559 10.2994 52.9775C10.6131 52.8991 10.8904 52.7983 11.1314 52.675C11.3722 52.5462 11.5795 52.4005 11.7532 52.238C11.9269 52.0756 12.0753 51.9075 12.1986 51.7338L11.4255 50.7927C11.3022 50.9439 11.1706 51.084 11.0305 51.2128C10.8905 51.3361 10.7364 51.4453 10.5683 51.5406C10.4003 51.6302 10.2154 51.7002 10.0137 51.7507C9.81206 51.801 9.58516 51.8263 9.33308 51.8263C8.64403 51.8263 8.11461 51.605 7.74486 51.1624C7.38072 50.7199 7.19865 50.0112 7.19865 49.0364V48.8263H12.2742V47.9608C12.2742 47.2661 12.2154 46.6527 12.0977 46.1204C11.9801 45.5882 11.7924 45.1401 11.5347 44.7759C11.277 44.4118 10.9465 44.1373 10.5431 43.9524C10.1398 43.7619 9.6524 43.6667 9.08092 43.6667L9.08091 43.6667ZM9.08091 44.944C9.40583 44.944 9.67474 45.0028 9.88765 45.1205C10.1005 45.2381 10.2686 45.4034 10.3918 45.6162C10.5207 45.8291 10.6131 46.084 10.6691 46.3809C10.7308 46.6722 10.77 46.9944 10.7868 47.3473V47.549H7.207C7.22941 47.0392 7.29103 46.6162 7.39188 46.28C7.49271 45.9439 7.62437 45.6778 7.78683 45.4818C7.9549 45.2801 8.14817 45.14 8.36666 45.0616C8.58514 44.9832 8.82323 44.944 9.08096 44.944L9.08091 44.944Z" fill="#A6A6A6"/>
</svg>
