<svg width="18" height="18" viewBox="0 0 18 18" fill="none" xmlns="http://www.w3.org/2000/svg">
<path d="M10 4.99988C12.103 4.99988 13 5.89688 13 7.99988H15C15 4.77488 13.225 2.99988 10 2.99988V4.99988ZM13.422 10.4429C13.023 10.0799 12.407 10.0989 12.031 10.4859L9.63804 12.9469C9.06204 12.8369 7.90404 12.4759 6.71204 11.2869C5.52004 10.0939 5.15904 8.93288 5.05204 8.36088L7.51104 5.96688C7.89904 5.59088 7.91704 4.97588 7.55404 4.57588L3.85904 0.512877C3.49604 0.111877 2.87904 0.0738771 2.46804 0.425877L0.298038 2.28688C0.125038 2.46088 0.0220378 2.69088 0.00803782 2.93588C-0.00696218 3.18588 -0.292962 9.10788 4.29904 13.7019C8.30504 17.7069 13.323 17.9999 14.705 17.9999C14.907 17.9999 15.031 17.9939 15.064 17.9919C15.309 17.9779 15.539 17.8749 15.712 17.7009L17.572 15.5299C17.925 15.1189 17.885 14.5029 17.486 14.1389L13.422 10.4429Z" fill="#94248C"/>
</svg>
